Coordinates
version=1
nRows=22
nColumns=24
inDegrees=yes

Units are S.I. units (second, meters, Newtons, ...)
Angles are in degrees.

endheader
time	pelvis_tilt	pelvis_list	pelvis_rotation	pelvis_tx	pelvis_ty	pelvis_tz	hip_flexion_r	hip_adduction_r	hip_rotation_r	knee_angle_r	ankle_angle_r	subtalar_angle_r	mtp_angle_r	hip_flexion_l	hip_adduction_l	hip_rotation_l	knee_angle_l	ankle_angle_l	subtalar_angle_l	mtp_angle_l	lumbar_extension	lumbar_bending	lumbar_rotation
      1.74166667	      0.45281711	      6.71228078	     -3.18252353	      1.46395722	      1.01995427	      0.22213151	     13.99400756	     -6.86142200	      0.63238840	    -64.97447172	      5.39545852	    -14.12092927	      3.18854453	      3.89219272	     11.23930245	      1.43536206	     -6.63881925	     -0.12201539	    -17.52540411	      7.42368687	     -1.58974334	     -8.34395877	      4.64047585
      1.74583333	      0.44728316	      6.61714581	     -2.93415356	      1.46876262	      1.02045897	      0.22170068	     14.49490784	     -6.73638606	      0.44629845	    -64.61076388	      5.55096989	    -14.22707785	      3.02182797	      3.38326661	     11.17501762	      1.76064393	     -6.27744048	     -0.09341389	    -17.52020366	      7.31419725	     -1.62871521	     -8.22343696	      4.40887834
      1.75000000	      0.42628803	      6.52171960	     -2.69268946	      1.47351045	      1.02089934	      0.22128648	     15.01405962	     -6.61433498	      0.26428083	    -64.22795881	      5.72529878	    -14.28901496	      2.97253814	      2.91666291	     11.10035713	      2.02326665	     -5.96317313	     -0.01498406	    -17.41260100	      7.28338196	     -1.65247139	     -8.09142460	      4.30837473
      1.75416667	      0.43019975	      6.42367509	     -2.44236084	      1.47830535	      1.02135810	      0.22087614	     15.48720727	     -6.49236827	      0.07857371	    -63.80215293	      5.83953323	    -14.39228499	      2.86555509	      2.40375494	     11.02416193	      2.36353933	     -5.61108530	      0.03188199	    -17.45890873	      7.21691980	     -1.70074883	     -7.98751607	      3.97078377
      1.75833333	      0.40507190	      6.34152962	     -2.20348281	      1.48305274	      1.02172053	      0.22049099	     15.99993823	     -6.39138018	     -0.09776343	    -63.37373822	      6.01884465	    -14.45428429	      2.82716098	      1.94896938	     10.95251382	      2.60112803	     -5.30273572	      0.07051502	    -17.34599606	      7.19340384	     -1.70787644	     -7.89144258	      3.88083390
      1.76250000	      0.42091234	      6.25494669	     -1.96418180	      1.48778894	      1.02211528	      0.22007109	     16.45995803	     -6.29654512	     -0.27885193	    -62.91296378	      6.10622954	    -14.53929086	      2.71412890	      1.42114017	     10.88309216	      2.96355466	     -4.93298691	      0.10771826	    -17.42761347	      7.12239369	     -1.78513065	     -7.76674657	      3.52228661
      1.76666667	      0.38575377	      6.17389776	     -1.72609601	      1.49253320	      1.02240143	      0.21970005	     16.96419031	     -6.20548457	     -0.45607978	    -62.42669404	      6.28474890	    -14.57679336	      2.67088336	      0.97922608	     10.80373494	      3.20124785	     -4.62278412	      0.13429208	    -17.32406507	      7.09566035	     -1.78221424	     -7.67072899	      3.42431750
      1.77083333	      0.36977979	      6.08288883	     -1.49278615	      1.49729030	      1.02269748	      0.21933007	     17.43673319	     -6.10622227	     -0.62841325	    -61.90700000	      6.39124628	    -14.62401894	      2.62014468	      0.50697243	     10.71229257	      3.46283013	     -4.28970268	      0.17698105	    -17.26890179	      7.06617247	     -1.80859388	     -7.55292612	      3.24636722
      1.77500000	      0.38572761	      6.02709368	     -1.27410514	      1.50203985	      1.02297513	      0.21898073	     17.87828629	     -6.04991983	     -0.78343978	    -61.38263963	      6.50341283	    -14.67657532	      2.46137475	     -0.01988909	     10.66081628	      3.81265796	     -3.90682876	      0.15738720	    -17.41028562	      6.96345047	     -1.86603166	     -7.49306238	      2.84106167
      1.77916667	      0.34214782	      5.94481713	     -1.04714274	      1.50674743	      1.02315115	      0.21863687	     18.37461976	     -5.96390037	     -0.94152157	    -60.82736956	      6.61253525	    -14.68341891	      2.42741212	     -0.44157871	     10.56824763	      4.03026046	     -3.60849901	      0.22936979	    -17.28965612	      6.94445667	     -1.85835849	     -7.37716433	      2.78516029
      1.78333333	      0.33574789	      5.86270824	     -0.80794295	      1.51151049	      1.02336786	      0.21829478	     18.80515649	     -5.88666823	     -1.11701312	    -60.22827798	      6.70823703	    -14.70042708	      2.37188149	     -0.91029605	     10.47353678	      4.29173462	     -3.30253867	      0.28516010	    -17.24530237	      6.91066077	     -1.87997168	     -7.28360192	      2.59671708
      1.78750000	      0.37340044	      5.79670424	     -0.61456585	      1.51618712	      1.02358512	      0.21799959	     19.20188690	     -5.82192516	     -1.24970439	    -59.62451160	      6.77187323	    -14.71766866	      2.26532000	     -1.44810307	     10.39622811	      4.57816116	     -2.93444675	      0.31510655	    -17.31314685	      6.84332939	     -1.98274189	     -7.19595803	      2.27906106
      1.79166667	      0.32314621	      5.73310859	     -0.40319714	      1.52096965	      1.02363770	      0.21769426	     19.67785020	     -5.76443517	     -1.39013131	    -59.00388895	      6.87154534	    -14.69168928	      2.14664465	     -1.87679156	     10.31597702	      4.84827311	     -2.60799579	      0.34363890	    -17.34183490	      6.76379535	     -1.94910104	     -7.11457127	      2.07994315
      1.79583333	      0.31163997	      5.66742029	     -0.19249667	      1.52566867	      1.02373663	      0.21742377	     20.10428297	     -5.70199630	     -1.52475518	    -58.35266061	      6.96755786	    -14.67792750	      2.10231594	     -2.32314378	     10.22493149	      5.04023012	     -2.31037677	      0.37728486	    -17.23255581	      6.73635198	     -1.97352656	     -7.04411656	      2.00364754
      1.80000000	      0.31723729	      5.60703976	      0.00860434	      1.53036940	      1.02381231	      0.21715155	     20.50298211	     -5.65135586	     -1.65653048	    -57.68288637	      7.01722934	    -14.66044476	      2.00781769	     -2.80836563	     10.14038923	      5.30233729	     -1.97892815	      0.43526496	    -17.25499845	      6.67533362	     -2.02789681	     -6.95769452	      1.73079068
      1.80416667	      0.28876293	      5.54178553	      0.21739312	      1.53506488	      1.02382704	      0.21689802	     20.92453113	     -5.59395789	     -1.78576607	    -56.98222834	      7.09510102	    -14.61874092	      1.96301967	     -3.23361434	     10.04355059	      5.50118106	     -1.68789636	      0.46944658	    -17.17507319	      6.64564291	     -2.03299287	     -6.88483437	      1.63882361
      1.80833333	      0.28475940	      5.49477893	      0.43279417	      1.53973744	      1.02381013	      0.21663007	     21.31879516	     -5.56813242	     -1.92540183	    -56.28015664	      7.14496248	    -14.57661942	      1.87511475	     -3.69632779	      9.96490019	      5.78393015	     -1.37405285	      0.52411581	    -17.20953698	      6.58517182	     -2.07841134	     -6.82028712	      1.36951979
      1.81250000	      0.26380917	      5.44491123	      0.63781523	      1.54442965	      1.02376005	      0.21639621	     21.71716291	     -5.53523739	     -2.05158756	    -55.54702934	      7.21195005	    -14.51618957	      1.83887829	     -4.11972310	      9.87803523	      5.97551614	     -1.10257337	      0.57218738	    -17.12154369	      6.56075692	     -2.09405659	     -6.76241553	      1.28499453
      1.81666667	      0.28705385	      5.39992997	      0.82889828	      1.54910349	      1.02372815	      0.21617518	     22.06214567	     -5.50775867	     -2.16678519	    -54.79704759	      7.23388154	    -14.46427519	      1.76300187	     -4.60689351	      9.79480684	      6.22454938	     -0.79106237	      0.63419457	    -17.13945031	      6.50630761	     -2.17293552	     -6.70161480	      1.03800365
      1.82083333	      0.23131979	      5.36475159	      1.01812520	      1.55381298	      1.02353580	      0.21597070	     22.48814746	     -5.49261825	     -2.27452402	    -54.04339165	      7.28858335	    -14.38809613	      1.74327801	     -4.99476014	      9.71909914	      6.39944684	     -0.51293645	      0.70190660	    -17.02778330	      6.49267108	     -2.14701040	     -6.64885273	      0.98686891
      1.82500000	      0.26658922	      5.32123516	      1.22593098	      1.55845105	      1.02347520	      0.21574906	     22.79084276	     -5.47722493	     -2.40619603	    -53.23930327	      7.30700464	    -14.30148935	      1.68178838	     -5.47509383	      9.62982376	      6.65327749	     -0.24067251	      0.77250638	    -17.06309773	      6.44211786	     -2.23403079	     -6.59763282	      0.70861743
      1.82916667	      0.22836570	      5.28906850	      1.42422692	      1.56313553	      1.02326529	      0.21555052	     23.17056959	     -5.47306256	     -2.51984548	    -52.43207883	      7.32495593	    -14.20560461	      1.62650234	     -5.87333276	      9.55150187	      6.87150832	      0.01992812	      0.84528691	    -17.03611949	      6.39194228	     -2.23531194	     -6.55595832	      0.54752876
